REM DIRINDEX 1\2\6,1\2\7,1\2\8,1\2\9,1\3\10,1\3\11,1\4\12,1\4\13,1\4\14,1\5\15,1\5\16,1\5\17
REM DIRNAME cjc020,folder01,folder02,folder03,folder04,folder05,folder06,folder07,folder08,folder09,folder10,folder11,folder12,folder13,folder14,folder15,folder16
TITLE ""
FILE "1900_3_041 sec07_0666_0681.mp3" MP3
  TRACK 01 AUDIO
    TITLE "0:"
    INDEX 01 00:00:00
  TRACK 02 AUDIO
    TITLE "17:cjc020_7304"
    INDEX 01 00:00:17
  TRACK 03 AUDIO
    TITLE "0:"
    INDEX 01 00:01:19
  TRACK 04 AUDIO
    TITLE "16:cjc020_7305"
    INDEX 01 00:01:24
  TRACK 05 AUDIO
    TITLE "0:"
    INDEX 01 00:02:36
  TRACK 06 AUDIO
    TITLE "17:cjc020_7306"
    INDEX 01 00:03:19
  TRACK 07 AUDIO
    TITLE "0:"
    INDEX 01 00:04:27
  TRACK 08 AUDIO
    TITLE "16:cjc020_7307"
    INDEX 01 00:04:35
  TRACK 09 AUDIO
    TITLE "0:"
    INDEX 01 00:05:36
  TRACK 10 AUDIO
    TITLE "17:cjc020_7308"
    INDEX 01 00:06:20
  TRACK 11 AUDIO
    TITLE "0:"
    INDEX 01 00:08:42
  TRACK 12 AUDIO
    TITLE "16:cjc020_7309"
    INDEX 01 00:08:48
  TRACK 13 AUDIO
    TITLE "0:"
    INDEX 01 00:09:59
  TRACK 14 AUDIO
    TITLE "17:cjc020_7310"
    INDEX 01 00:10:47
  TRACK 15 AUDIO
    TITLE "0:"
    INDEX 01 00:12:05
  TRACK 16 AUDIO
    TITLE "16:cjc020_7311"
    INDEX 01 00:12:11
  TRACK 17 AUDIO
    TITLE "0:"
    INDEX 01 00:13:22
  TRACK 18 AUDIO
    TITLE "17:cjc020_7312"
    INDEX 01 00:14:07
  TRACK 19 AUDIO
    TITLE "0:"
    INDEX 01 00:14:72
  TRACK 20 AUDIO
    TITLE "16:cjc020_7313"
    INDEX 01 00:15:03
  TRACK 21 AUDIO
    TITLE "0:"
    INDEX 01 00:16:00
  TRACK 22 AUDIO
    TITLE "17:cjc020_7314"
    INDEX 01 00:16:57
  TRACK 23 AUDIO
    TITLE "0:"
    INDEX 01 00:17:70
  TRACK 24 AUDIO
    TITLE "16:cjc020_7315"
    INDEX 01 00:17:74
  TRACK 25 AUDIO
    TITLE "0:"
    INDEX 01 00:19:01
  TRACK 26 AUDIO
    TITLE "17:cjc020_7316"
    INDEX 01 00:19:67
  TRACK 27 AUDIO
    TITLE "0:"
    INDEX 01 00:20:65
  TRACK 28 AUDIO
    TITLE "16:cjc020_7317"
    INDEX 01 00:20:67
  TRACK 29 AUDIO
    TITLE "0:"
    INDEX 01 00:22:01
  TRACK 30 AUDIO
    TITLE "17:cjc020_7318"
    INDEX 01 00:22:60
  TRACK 31 AUDIO
    TITLE "0:"
    INDEX 01 00:23:44
  TRACK 32 AUDIO
    TITLE "16:cjc020_7319"
    INDEX 01 00:23:50
  TRACK 33 AUDIO
    TITLE "0:"
    INDEX 01 00:24:49
  TRACK 34 AUDIO
    TITLE "17:cjc020_7320"
    INDEX 01 00:25:29
  TRACK 35 AUDIO
    TITLE "0:"
    INDEX 01 00:26:38
  TRACK 36 AUDIO
    TITLE "16:cjc020_7321"
    INDEX 01 00:26:48
  TRACK 37 AUDIO
    TITLE "0:"
    INDEX 01 00:27:39
  TRACK 38 AUDIO
    TITLE "17:cjc020_7322"
    INDEX 01 00:28:29
  TRACK 39 AUDIO
    TITLE "0:"
    INDEX 01 00:30:67
  TRACK 40 AUDIO
    TITLE "16:cjc020_7323"
    INDEX 01 00:30:69
  TRACK 41 AUDIO
    TITLE "0:"
    INDEX 01 00:32:07
  TRACK 42 AUDIO
    TITLE "17:cjc020_7324"
    INDEX 01 00:32:66
  TRACK 43 AUDIO
    TITLE "0:"
    INDEX 01 00:33:73
  TRACK 44 AUDIO
    TITLE "16:cjc020_7325"
    INDEX 01 00:34:04
  TRACK 45 AUDIO
    TITLE "0:"
    INDEX 01 00:35:17
  TRACK 46 AUDIO
    TITLE "17:cjc020_7326"
    INDEX 01 00:35:74
  TRACK 47 AUDIO
    TITLE "0:"
    INDEX 01 00:37:07
  TRACK 48 AUDIO
    TITLE "16:cjc020_7327"
    INDEX 01 00:37:16
  TRACK 49 AUDIO
    TITLE "0:"
    INDEX 01 00:38:12
  TRACK 50 AUDIO
    TITLE "17:cjc020_7328"
    INDEX 01 00:38:73
  TRACK 51 AUDIO
    TITLE "0:"
    INDEX 01 00:41:26
  TRACK 52 AUDIO
    TITLE "16:cjc020_7329"
    INDEX 01 00:41:28
  TRACK 53 AUDIO
    TITLE "0:"
    INDEX 01 00:42:55
  TRACK 54 AUDIO
    TITLE "17:cjc020_7330"
    INDEX 01 00:43:39
  TRACK 55 AUDIO
    TITLE "0:"
    INDEX 01 00:44:65
  TRACK 56 AUDIO
    TITLE "16:cjc020_7331"
    INDEX 01 00:44:69
  TRACK 57 AUDIO
    TITLE "0:"
    INDEX 01 00:46:21
  TRACK 58 AUDIO
    TITLE "17:cjc020_7332"
    INDEX 01 00:47:01
  TRACK 59 AUDIO
    TITLE "0:"
    INDEX 01 00:48:69
  TRACK 60 AUDIO
    TITLE "16:cjc020_7333"
    INDEX 01 00:48:73
  TRACK 61 AUDIO
    TITLE "0:"
    INDEX 01 00:50:07
  TRACK 62 AUDIO
    TITLE "17:cjc020_7334"
    INDEX 01 00:50:62
  TRACK 63 AUDIO
    TITLE "0:"
    INDEX 01 00:51:71
  TRACK 64 AUDIO
    TITLE "16:cjc020_7335"
    INDEX 01 00:52:00
  TRACK 65 AUDIO
    TITLE "0:"
    INDEX 01 00:52:73
